<?xml version="1.0" encoding="utf-8"?>
<!-- Generator: Adobe Illustrator 23.0.4, SVG Export Plug-In . SVG Version: 6.00 Build 0)  -->
<svg version="1.1" id="Capa_1" xmlns="http://www.w3.org/2000/svg" xmlns:xlink="http://www.w3.org/1999/xlink" x="0px" y="0px"
	 viewBox="0 0 1621.6 904.8" style="enable-background:new 0 0 1621.6 904.8;" xml:space="preserve">
<style type="text/css">
	.st0{fill:#321C25;}
	.st1{font-family:'Palatino-Roman';}
	.st2{font-size:300px;}
</style>
<g>
	<path class="st0" d="M786.4,161l-204.6-53.5l-3.1,3.2c-20,20.5-34.6,46.7-42.2,75.8c-19.2,73.6,11.3,147,69.1,173.2L558,541.6
		c-36.6-8-65-9.5-66.7-3c-2,7.7,33.2,23.5,78.5,35.4c45.4,11.9,83.8,15.3,85.9,7.5c1.7-6.5-23.8-19.1-59.6-30.1l47.6-182
		c62.7,4.6,124.5-44.2,143.6-117.4c7.6-29.1,7.7-59.1,0.3-86.8L786.4,161z M681.7,318.6c0,0,67.9-29.2,64-57l18.8,4.9
		C764.6,266.5,757,316,681.7,318.6z M644,181c-35.9-37.5-61.4-37.7-74.7-33.4c5.1-8.3,10.9-16,17.3-23.1l187.4,49
		c3.2,13.7,4.4,28,3.6,42.5C776.2,216.3,698.1,237.7,644,181z"/>
	<path class="st0" d="M1019.6,605.7l-42.3-183.3c57.7-25.1,89.8-97,72.8-170.6c-6.8-29.3-20.6-56-40-77l-3-3.2l-206,47.4l-1.2,4.2
		c-8.2,27.5-9,57.5-2.2,86.8c17.1,74.2,78.2,125,141.5,121.4l42.2,183.1c-36.2,9.9-62.1,21.7-60.5,28.3c1.7,7.7,40.3,5.5,86-5.1
		c45.8-10.5,81.3-25.4,79.6-33.1C1084.9,598,1056.5,598.7,1019.6,605.7z M987.5,359.6c0,0,46.6-57.3,30.3-80.2l19-4.4
		C1036.8,275,1053,322.3,987.5,359.6z M890.3,255.2c-49.2-16.6-71.9-4.9-81.6,5c0.6-9.7,2.2-19.2,4.6-28.4l188.7-43.5
		c9.2,10.7,16.9,22.8,22.9,36C1023.8,225.1,964.5,280.3,890.3,255.2z"/>
	<circle class="st0" cx="909.6" cy="168.6" r="20.7"/>
	<circle class="st0" cx="957.8" cy="77.2" r="18"/>
	<circle class="st0" cx="920.1" cy="10.5" r="10.5"/>
	<circle class="st0" cx="876.3" cy="6.9" r="6.9"/>
	<circle class="st0" cx="748.6" cy="19.8" r="19.8"/>
	<path class="st0" d="M582.2,44.6c3.1,1.6,5.9,3,9,4.4s6.2,3.6,8.7,6.5s4.7,6.4,6.7,10.2c2,3.7,3.7,7.9,5.1,12.1
		c3,8.5,4.8,17.6,6,26.9l2.2,0.2c2.3-9.4,3-19.1,2.7-29.1c-0.6-9.9-2.6-20.2-7.9-30c-2.6-4.8-5.8-9.8-10.1-14.1
		c-4.4-4.2-10.1-7.2-16-8.2c-11.8-2.1-23.1,1.2-31.2,8.9l0.4,2.2C568,38.9,576,41.3,582.2,44.6z"/>
	<path class="st0" d="M634.4,36.6c1.2,1.1,2.2,2.4,2.9,4.1c0.7,1.7,1.2,3.5,1.4,5.4c0.3,1.9,0.5,4,0.5,6c0.1,4.1-0.5,8.4-1.3,12.6
		l0.9,0.4c2.4-3.8,4.1-7.9,5.4-12.3c1.2-4.4,1.8-9.2,0.9-14.2c-0.4-2.5-1.1-5.1-2.4-7.6c-1.3-2.5-3.4-4.6-5.8-5.9
		c-4.9-2.6-10.2-2.8-14.9-0.6l-0.1,1c3.9,3.3,7,5.5,9.2,7.9C632.3,34.5,633.3,35.5,634.4,36.6z"/>
</g>
<text transform="matrix(1 0 0 1 0 817.3573)" class="st0 st1 st2">Wineaholics</text>
</svg>
